<svg width="24" height="24" viewBox="0 0 24 24" fill="none" xmlns="http://www.w3.org/2000/svg">
<path d="M15.459 3.7041C15.8241 3.7042 16.1863 3.76781 16.5293 3.89062L16.6748 3.94629C17.0121 4.08609 17.3229 4.28262 17.5928 4.52734L17.7051 4.63574C17.9631 4.89391 18.1744 5.19415 18.3301 5.52344L18.3936 5.66602C18.5531 6.05147 18.6358 6.46467 18.6357 6.88184L18.6318 7.03809C18.6138 7.40189 18.5333 7.76045 18.3936 8.09766C18.234 8.48264 17.9997 8.83223 17.7051 9.12695L17.6914 9.13965V9.14062L9.9873 16.5557C9.89976 16.6399 9.79669 16.7067 9.68359 16.751C9.5705 16.7953 9.44956 16.8168 9.32812 16.8145L9.2373 16.8076C9.17731 16.8005 9.11801 16.7882 9.06055 16.7695L8.97559 16.7373C8.8643 16.6887 8.76389 16.6178 8.67969 16.5303C8.59557 16.4428 8.52961 16.3396 8.48535 16.2266C8.44107 16.1135 8.41951 15.9925 8.42188 15.8711C8.42369 15.78 8.43872 15.6899 8.4668 15.6035L8.49902 15.5186C8.53547 15.4353 8.5838 15.3579 8.64258 15.2891L8.70508 15.2227L16.4014 7.81543L16.4023 7.81445C16.6504 7.56485 16.7891 7.22688 16.7881 6.875L16.7812 6.74414C16.7547 6.48368 16.6509 6.23715 16.4844 6.03516L16.3965 5.9375C16.3038 5.84543 16.198 5.76805 16.083 5.70703L15.9648 5.65137C15.8439 5.60173 15.7166 5.56997 15.5869 5.55762L15.457 5.55176C15.1491 5.55271 14.8527 5.66129 14.6172 5.85547L14.5195 5.94336L6.62598 13.8125C6.07559 14.3631 5.76649 15.1102 5.7666 15.8887L5.78125 16.1768C5.80957 16.4635 5.87952 16.7455 5.99023 17.0127C6.13783 17.3687 6.35438 17.6924 6.62695 17.9648C6.83153 18.1693 7.06513 18.3417 7.31934 18.4775L7.58008 18.6006C7.84712 18.7111 8.12846 18.7814 8.41504 18.8096L8.70312 18.8242C9.38428 18.8241 10.0412 18.5872 10.5635 18.1592L10.7783 17.9639L17.3779 11.3701C17.4424 11.3057 17.5156 11.2509 17.5957 11.208L17.6777 11.1689C17.79 11.1224 17.9107 11.0987 18.0322 11.0986C18.1538 11.0986 18.2744 11.1225 18.3867 11.1689C18.4991 11.2155 18.6015 11.2841 18.6875 11.3701C18.752 11.4346 18.8068 11.5078 18.8496 11.5879L18.8887 11.6699C18.9352 11.7822 18.9589 11.9029 18.959 12.0244C18.959 12.1158 18.9454 12.2068 18.9189 12.2939L18.8887 12.3789C18.8433 12.4883 18.7762 12.5873 18.6934 12.6719L18.6846 12.6807L12.0859 19.2744C11.1885 20.1716 9.97114 20.6759 8.70215 20.6758L8.46484 20.6699C7.3609 20.6151 6.30949 20.1795 5.49023 19.4375L5.31836 19.2734C4.42114 18.3759 3.91683 17.1587 3.91699 15.8896L3.92285 15.6523C3.97776 14.5484 4.41331 13.4969 5.15527 12.6777L5.31934 12.5059L13.2129 4.63379C13.7715 4.07555 14.5167 3.74677 15.3018 3.70801L15.459 3.7041Z" fill="#AEAEAE" stroke="#AEAEAE" stroke-width="0.0804147"/>
</svg>
