<svg width="36" height="36" viewBox="0 0 36 36" fill="none" xmlns="http://www.w3.org/2000/svg">
<g id="attach" clip-path="url(#clip0_320_1909)">
<g id="Ellipse 5">
<circle cx="18" cy="18" r="18" fill="white"/>
<circle cx="18" cy="18" r="17.5" stroke="black" stroke-opacity="0.1"/>
</g>
<path id="Vector" fill-rule="evenodd" clip-rule="evenodd" d="M15.75 14.25C15.75 12.1789 17.4289 10.5 19.5 10.5C21.571 10.5 23.25 12.1789 23.25 14.25V20.25C23.25 23.1495 20.8995 25.5 18 25.5C15.1005 25.5 12.75 23.1495 12.75 20.25V15.75C12.75 15.3358 13.0858 15 13.5 15C13.9142 15 14.25 15.3358 14.25 15.75V20.25C14.25 22.321 15.9289 24 18 24C20.0711 24 21.75 22.321 21.75 20.25V14.25C21.75 13.0074 20.7427 12 19.5 12C18.2573 12 17.25 13.0074 17.25 14.25V20.25C17.25 20.6642 17.5858 21 18 21C18.4142 21 18.75 20.6642 18.75 20.25V15.75C18.75 15.3358 19.0858 15 19.5 15C19.9142 15 20.25 15.3358 20.25 15.75V20.25C20.25 21.4927 19.2427 22.5 18 22.5C16.7573 22.5 15.75 21.4927 15.75 20.25V14.25Z" fill="#5D5D5D"/>
</g>
<defs>
<clipPath id="clip0_320_1909">
<rect width="36" height="36" fill="white"/>
</clipPath>
</defs>
</svg>
