<svg width="36" height="36" viewBox="0 0 36 36" fill="none" xmlns="http://www.w3.org/2000/svg">
<g id="attach" clip-path="url(#clip0_320_1918)">
<g id="Ellipse 5">
<circle cx="18" cy="18" r="18" fill="white"/>
<circle cx="18" cy="18" r="17.5" stroke="black" stroke-opacity="0.1"/>
</g>
<path id="Vector" fill-rule="evenodd" clip-rule="evenodd" d="M18.375 11.5C15.6862 11.5 13.5 13.6919 13.5 16.4039C13.5 18.1158 14.3715 19.6223 15.6936 20.5H21.0564C22.3785 19.6223 23.25 18.1158 23.25 16.4039C23.25 13.6919 21.0638 11.5 18.375 11.5ZM20.524 22H16.226V22.75H20.524V22ZM19.6743 24.25H17.0757C17.3351 24.6983 17.8198 25 18.375 25C18.9302 25 19.4149 24.6983 19.6743 24.25ZM15.4695 24.25C15.8025 25.5439 16.9771 26.5 18.375 26.5C19.7729 26.5 20.9475 25.5439 21.2805 24.25C21.6917 24.2465 22.024 23.9121 22.024 23.5V21.6555C23.6716 20.4982 24.75 18.5772 24.75 16.4039C24.75 12.8708 21.8994 10 18.375 10C14.8506 10 12 12.8707 12 16.4039C12 18.5772 13.0783 20.4982 14.726 21.6555V23.5C14.726 23.9121 15.0583 24.2465 15.4695 24.25Z" fill="#5D5D5D"/>
</g>
<defs>
<clipPath id="clip0_320_1918">
<rect width="36" height="36" fill="white"/>
</clipPath>
</defs>
</svg>
