<svg width="36" height="36" viewBox="0 0 36 36" fill="none" xmlns="http://www.w3.org/2000/svg">
<g id="attach" clip-path="url(#clip0_320_1912)">
<g id="Ellipse 5">
<circle cx="18" cy="18" r="18" fill="white"/>
<circle cx="18" cy="18" r="17.5" stroke="black" stroke-opacity="0.1"/>
</g>
<path id="Union" d="M22.8848 9.82715C24.1484 9.82727 25.1726 10.8516 25.1729 12.1152V22.8848C25.1727 24.1485 24.1485 25.1727 22.8848 25.1729H12.1152C10.8516 25.1726 9.82727 24.1484 9.82715 22.8848V12.1152C9.82735 10.8516 10.8516 9.82735 12.1152 9.82715H22.8848ZM13.9268 23.6729H22.8848C23.32 23.6727 23.6727 23.32 23.6729 22.8848V20.1191L20.5762 17.0225L13.9268 23.6729ZM12.1152 11.3271C11.6801 11.3274 11.3274 11.6801 11.3271 12.1152V22.8848C11.3272 23.2274 11.5462 23.5174 11.8516 23.626L20.0469 15.4316L20.1035 15.3799C20.3981 15.1398 20.8329 15.1571 21.1074 15.4316L23.6729 17.9971V12.1152C23.6726 11.68 23.32 11.3273 22.8848 11.3271H12.1152ZM14.8086 12.9043C15.8596 12.9048 16.7119 13.7574 16.7119 14.8086C16.7114 15.8593 15.8593 16.7114 14.8086 16.7119C13.7574 16.7119 12.9048 15.8596 12.9043 14.8086C12.9043 13.7571 13.7571 12.9043 14.8086 12.9043ZM14.8086 14.4043C14.5856 14.4043 14.4043 14.5856 14.4043 14.8086C14.4048 15.0312 14.5859 15.2119 14.8086 15.2119C15.0309 15.2114 15.2114 15.0309 15.2119 14.8086C15.2119 14.5859 15.0312 14.4048 14.8086 14.4043Z" fill="#5D5D5D"/>
</g>
<defs>
<clipPath id="clip0_320_1912">
<rect width="36" height="36" fill="white"/>
</clipPath>
</defs>
</svg>
