<svg width="36" height="36" viewBox="0 0 36 36" fill="none" xmlns="http://www.w3.org/2000/svg">
<g id="attach" clip-path="url(#clip0_320_1930)">
<g id="Ellipse 5">
<circle cx="18" cy="18" r="18" fill="white"/>
<circle cx="18" cy="18" r="17.5" stroke="black" stroke-opacity="0.1"/>
</g>
<path id="Union" d="M22.666 15.918C23.0802 15.918 23.416 16.2538 23.416 16.668V18.001L23.4102 18.2695C23.3438 19.6083 22.7823 20.8787 21.8301 21.8311C20.9928 22.6683 19.9094 23.2031 18.75 23.3652V24.582H20.666L20.7432 24.5859C21.1213 24.6244 21.416 24.9438 21.416 25.332C21.416 25.7203 21.1213 26.0397 20.7432 26.0781L20.666 26.082H18.0303C18.0202 26.0824 18.0102 26.085 18 26.085C17.9898 26.085 17.9798 26.0824 17.9697 26.082H15.333C14.9189 26.0819 14.583 25.7462 14.583 25.332C14.583 24.9179 14.9189 24.5822 15.333 24.582H17.25V23.3643C16.0907 23.202 15.0072 22.6683 14.1699 21.8311C13.2176 20.8786 12.6562 19.6084 12.5898 18.2695L12.583 18.001V16.668C12.583 16.2538 12.9189 15.9181 13.333 15.918C13.7472 15.918 14.083 16.2538 14.083 16.668V18.001L14.0879 18.1953C14.1359 19.1634 14.5419 20.0819 15.2305 20.7705C15.9649 21.505 16.9613 21.9179 18 21.918L18.1943 21.9131C19.1622 21.865 20.081 21.4589 20.7695 20.7705C21.458 20.0819 21.8632 19.1633 21.9111 18.1953L21.916 18.001V16.668C21.916 16.2539 22.2521 15.9183 22.666 15.918ZM18.2715 9.93164C18.9011 9.99409 19.493 10.2723 19.9443 10.7236C20.4601 11.2394 20.75 11.9386 20.75 12.668V18.001C20.75 18.7303 20.4601 19.4306 19.9443 19.9463C19.4286 20.4618 18.7292 20.751 18 20.751C17.2708 20.751 16.5714 20.4618 16.0557 19.9463C15.5399 19.4306 15.25 18.7303 15.25 18.001V12.668C15.25 11.9386 15.5399 11.2394 16.0557 10.7236C16.5714 10.2079 17.2707 9.91797 18 9.91797L18.2715 9.93164ZM18 11.418C17.6685 11.418 17.3506 11.5498 17.1162 11.7842C16.8818 12.0186 16.75 12.3364 16.75 12.668V18.001C16.75 18.3324 16.8819 18.6504 17.1162 18.8848C17.3506 19.1192 17.6685 19.251 18 19.251C18.3315 19.251 18.6494 19.1192 18.8838 18.8848C19.1181 18.6504 19.25 18.3324 19.25 18.001V12.668C19.25 12.3364 19.1182 12.0186 18.8838 11.7842C18.6788 11.5792 18.41 11.4523 18.124 11.4238L18 11.418Z" fill="#5D5D5D"/>
</g>
<defs>
<clipPath id="clip0_320_1930">
<rect width="36" height="36" fill="white"/>
</clipPath>
</defs>
</svg>
