<svg width="33" height="32" viewBox="0 0 33 32" fill="none" xmlns="http://www.w3.org/2000/svg">
<path d="M15.5635 9.03564L15.6592 9.05322C15.7543 9.07684 15.8434 9.11935 15.9209 9.17822L15.9941 9.24268C16.0635 9.31208 16.1183 9.39429 16.1543 9.48486L16.1836 9.57764C16.2072 9.67288 16.2112 9.77152 16.1953 9.86768L16.1729 9.9624C15.8962 10.8778 15.8728 11.8513 16.1055 12.7788C16.3091 13.5903 16.7021 14.3404 17.25 14.9683L17.4951 15.23C18.0867 15.8216 18.809 16.2628 19.6016 16.52L19.9453 16.6196C20.7569 16.8235 21.6037 16.8314 22.416 16.645L22.7617 16.5532C22.8553 16.5247 22.9533 16.5153 23.0498 16.5259L23.1455 16.5435C23.2405 16.5672 23.3298 16.6095 23.4072 16.6685L23.4805 16.7329C23.5495 16.802 23.6036 16.8841 23.6396 16.9741L23.6699 17.0669C23.6935 17.1614 23.697 17.2594 23.6816 17.355L23.6602 17.4497C23.2685 18.7275 22.5082 19.859 21.4775 20.7036L21.2686 20.8687C20.1059 21.7484 18.6865 22.2225 17.2285 22.2183L16.9941 22.2144C15.9047 22.1765 14.841 21.8733 13.8945 21.3325L13.6934 21.2134C12.6977 20.5976 11.8809 19.7329 11.3232 18.7065L11.2148 18.4985C10.6573 17.3812 10.4226 16.1307 10.5361 14.8872C10.6426 13.7211 11.0512 12.6043 11.7207 11.647L11.8574 11.4575C12.6624 10.3908 13.7642 9.58821 15.0215 9.14697L15.2744 9.06396C15.3681 9.0351 15.4666 9.02517 15.5635 9.03564ZM14.4785 10.9888C13.9801 11.2939 13.5353 11.6782 13.1621 12.1265L13.0059 12.3228C12.2881 13.2762 11.9157 14.4429 11.9453 15.6313L11.957 15.8696C12.0406 17.0602 12.5243 18.1853 13.3262 19.063L13.4912 19.2349C14.3914 20.1351 15.5865 20.6799 16.8564 20.769C18.0471 20.8526 19.2288 20.5305 20.21 19.8589L20.4033 19.7202C20.9364 19.3175 21.3887 18.8175 21.7373 18.2476L21.7695 18.1958L21.709 18.2007C21.5497 18.2119 21.3891 18.2173 21.2285 18.2173L20.8955 18.2085C19.3459 18.1299 17.8707 17.5177 16.7207 16.4761L16.4795 16.2466C15.2198 14.9869 14.5109 13.279 14.5088 11.4976L14.5137 11.2573C14.5165 11.1772 14.5198 11.0969 14.5254 11.0171L14.5303 10.9565L14.4785 10.9888Z" fill="#AEAEAE" stroke="#AEAEAE" stroke-width="0.0625111"/>
</svg>
