<svg width="32" height="32" viewBox="0 0 32 32" fill="none" xmlns="http://www.w3.org/2000/svg">
<path d="M15.9998 12.3437C15.2766 12.3437 14.5697 12.5582 13.9685 12.9599C13.3672 13.3617 12.8986 13.9327 12.6218 14.6008C12.3451 15.2689 12.2727 16.004 12.4138 16.7133C12.5548 17.4225 12.9031 18.074 13.4144 18.5854C13.9257 19.0967 14.5772 19.4449 15.2865 19.586C15.9957 19.7271 16.7309 19.6547 17.3989 19.3779C18.067 19.1012 18.6381 18.6326 19.0398 18.0313C19.4416 17.43 19.656 16.7231 19.656 16C19.6549 15.0306 19.2693 14.1013 18.5839 13.4159C17.8984 12.7304 16.9691 12.3449 15.9998 12.3437ZM15.9998 17.9687C15.6104 17.9687 15.2297 17.8533 14.906 17.6369C14.5822 17.4206 14.3299 17.1131 14.1809 16.7534C14.0319 16.3937 13.9929 15.9978 14.0688 15.6159C14.1448 15.234 14.3323 14.8832 14.6076 14.6079C14.883 14.3325 15.2338 14.145 15.6157 14.0691C15.9976 13.9931 16.3934 14.0321 16.7532 14.1811C17.1129 14.3301 17.4204 14.5825 17.6367 14.9062C17.853 15.23 17.9685 15.6106 17.9685 16C17.9685 16.5221 17.7611 17.0229 17.3919 17.3921C17.0227 17.7613 16.5219 17.9687 15.9998 17.9687ZM24.0055 14.4834C23.9817 14.3645 23.9326 14.2522 23.8615 14.154C23.7904 14.0559 23.699 13.9742 23.5935 13.9145L21.6395 12.8001L21.6318 10.5986C21.6314 10.4764 21.6044 10.3558 21.5528 10.2451C21.5012 10.1344 21.4262 10.0362 21.333 9.95734C20.5455 9.29111 19.6389 8.78028 18.6611 8.45195C18.5496 8.41432 18.4314 8.40045 18.3142 8.41123C18.1969 8.42201 18.0833 8.45719 17.9805 8.51452L15.9998 9.62054L14.0191 8.51382C13.9161 8.45618 13.8022 8.42076 13.6848 8.40986C13.5673 8.39896 13.4488 8.41282 13.337 8.45054C12.3589 8.78024 11.4523 9.2925 10.6652 9.96015C10.5722 10.0389 10.4974 10.1369 10.446 10.2474C10.3945 10.3579 10.3676 10.4781 10.367 10.6L10.3572 12.8036L8.40601 13.9152C8.30048 13.9751 8.2091 14.0571 8.13812 14.1555C8.06714 14.2539 8.01821 14.3664 7.99468 14.4855C7.79604 15.4861 7.79604 16.516 7.99468 17.5166C8.0184 17.6354 8.06741 17.7477 8.13838 17.8459C8.20936 17.944 8.30064 18.0257 8.40601 18.0855L10.3621 19.1999L10.3698 21.4014C10.3703 21.5235 10.3972 21.6441 10.4488 21.7549C10.5004 21.8656 10.5754 21.9638 10.6687 22.0427C11.4561 22.7089 12.3627 23.2197 13.3405 23.548C13.4521 23.5857 13.5703 23.5995 13.6875 23.5888C13.8047 23.578 13.9184 23.5428 14.0212 23.4855L15.9998 22.3794L17.9784 23.4862C18.0813 23.5438 18.1952 23.5792 18.3127 23.5901C18.4301 23.601 18.5486 23.5872 18.6604 23.5494C19.6385 23.2197 20.5451 22.7075 21.3323 22.0398C21.4252 21.961 21.5 21.863 21.5515 21.7526C21.6029 21.6421 21.6298 21.5218 21.6304 21.4L21.6402 19.1964L23.5956 18.0848C23.7012 18.0249 23.7925 17.9429 23.8635 17.8445C23.9345 17.7461 23.9834 17.6336 24.0069 17.5145C24.2051 16.5138 24.2046 15.4839 24.0055 14.4834ZM22.4144 16.8163L20.5244 17.8907C20.3901 17.9668 20.2794 18.0785 20.2044 18.2134C20.1665 18.2837 20.1264 18.3491 20.0849 18.4159C20.0016 18.549 19.957 18.7026 19.9562 18.8596L19.9464 20.9922C19.4915 21.3345 18.9934 21.6151 18.4649 21.8268L16.5559 20.7587C16.43 20.6882 16.2882 20.6512 16.1439 20.6512H16.1235C16.0434 20.6512 15.9618 20.6512 15.8816 20.6512C15.7309 20.6476 15.5818 20.6842 15.4499 20.7573L13.5388 21.8233C13.0095 21.6126 12.5102 21.3332 12.0538 20.9922L12.0461 18.8659C12.0454 18.7087 12.0009 18.5548 11.9174 18.4216C11.8766 18.3555 11.8359 18.2873 11.7979 18.2191C11.7229 18.0849 11.6125 17.974 11.4787 17.8984L9.58726 16.8177C9.51378 16.2755 9.51378 15.7259 9.58726 15.1837L11.4773 14.1093C11.6113 14.0332 11.722 13.9218 11.7972 13.7873C11.8352 13.7169 11.8752 13.6509 11.9167 13.5841C12 13.451 12.0446 13.2974 12.0454 13.1404L12.0531 11.0078C12.5082 10.6665 13.0063 10.3868 13.5346 10.176L15.4436 11.2441C15.5755 11.318 15.7249 11.355 15.876 11.3509C15.9562 11.3509 16.0377 11.3509 16.1179 11.3509C16.2687 11.3545 16.4177 11.3179 16.5496 11.2448L18.4607 10.1767C18.99 10.3873 19.4893 10.6668 19.9457 11.0078L19.9534 13.1341C19.9541 13.2913 19.9987 13.4452 20.0821 13.5784C20.1229 13.6445 20.1637 13.7127 20.2016 13.7809C20.2766 13.915 20.3871 14.026 20.5209 14.1016L22.4123 15.1794C22.4867 15.7225 22.4874 16.2731 22.4144 16.8163Z" fill="#AEAEAE"/>
</svg>
