<svg width="24" height="24" viewBox="0 0 24 24" fill="none" xmlns="http://www.w3.org/2000/svg">
<g clip-path="url(#clip0_320_1851)">
<rect width="24" height="24" fill="white"/>
<path d="M3 3C3 3 8.44519 4.36324 12 4.36324C15.5548 4.36324 21 3 21 3C21 3 19.6368 8.44519 19.6368 12C19.6368 15.5548 21 21 21 21C21 21 15.5548 19.6368 12 19.6368C8.44519 19.6368 3 21 3 21C3 21 4.36325 15.5548 4.36325 12C4.36325 8.44519 3 3 3 3Z" stroke="#383838" stroke-width="1.4" stroke-linejoin="round"/>
<path d="M8.1755 8.175C8.1755 8.175 10.4897 8.75438 12.0005 8.75438C13.5113 8.75438 15.8255 8.175 15.8255 8.175C15.8255 8.175 15.2461 10.4892 15.2461 12C15.2461 13.5108 15.8255 15.825 15.8255 15.825C15.8255 15.825 13.5113 15.2456 12.0005 15.2456C10.4897 15.2456 8.1755 15.825 8.1755 15.825C8.1755 15.825 8.75488 13.5108 8.75488 12C8.75488 10.4892 8.1755 8.175 8.1755 8.175Z" stroke="#383838" stroke-width="1.4" stroke-linejoin="round"/>
</g>
<defs>
<clipPath id="clip0_320_1851">
<rect width="24" height="24" fill="white"/>
</clipPath>
</defs>
</svg>
