<svg width="24" height="24" viewBox="0 0 24 24" fill="none" xmlns="http://www.w3.org/2000/svg">
<rect width="24" height="24" fill="white"/>
<path d="M5.55093 3.19995C2.87845 4.31443 1 6.95206 1 10.0284C1 14.1127 4.31097 17.4237 8.39526 17.4237C10.1922 17.4237 11.8395 16.7828 13.1209 15.7171" stroke="#383838" stroke-width="1.4" stroke-linecap="round"/>
<path d="M6.87204 6.89868C5.61777 7.43355 4.73617 8.69943 4.73617 10.1759C4.73617 12.136 6.29009 13.7251 8.20696 13.7251C9.05031 13.7251 9.82341 13.4175 10.4248 12.906" stroke="#383838" stroke-width="1.4" stroke-linecap="round"/>
<path d="M18.4491 20.7999C21.1216 19.6855 23 17.0478 23 13.9714C23 9.88716 19.6891 6.57619 15.6048 6.57619C13.8078 6.57619 12.1606 7.21709 10.8791 8.28279" stroke="#383838" stroke-width="1.4" stroke-linecap="round"/>
<path d="M17.1282 17.1012C18.3825 16.5663 19.2641 15.3004 19.2641 13.824C19.2641 11.8638 17.7102 10.2748 15.7933 10.2748C14.95 10.2748 14.1769 10.5824 13.5754 11.0939" stroke="#383838" stroke-width="1.4" stroke-linecap="round"/>
</svg>
