<svg width="24" height="24" viewBox="0 0 24 24" fill="none" xmlns="http://www.w3.org/2000/svg">
<path d="M4.57468 9.59963C3.69153 8.9441 3.11963 7.89619 3.11963 6.71533C3.11963 4.72948 4.73702 3.11963 6.73217 3.11963C7.47078 3.11963 8.15762 3.34026 8.72979 3.71891C9.21847 4.04232 11.2217 6.1516 11.7958 6.76024C11.8998 6.87046 12.0017 6.98028 12.1154 7.08038C12.4032 7.33365 12.8788 7.69075 13.1043 7.81402C13.606 8.03042 14.8604 8.3334 15.8639 7.81402C16.1315 7.71414 16.8373 7.3246 17.5196 6.56551" stroke="#383838" stroke-width="1.4" stroke-linecap="round"/>
<path d="M13.9196 4.57468C14.648 3.69153 15.8123 3.11963 17.1244 3.11963C19.3309 3.11963 21.1196 4.73702 21.1196 6.73217C21.1196 7.47078 20.8745 8.15762 20.4538 8.72979C20.0921 9.22158 17.7209 11.2472 17.0618 11.8066C16.9476 11.9035 16.8344 11.9979 16.7293 12.1047C16.4474 12.3912 16.0423 12.876 15.9036 13.1043C15.6632 13.606 15.3266 14.8604 15.9036 15.8639C16.0146 16.1315 16.4474 16.8373 17.2909 17.5196" stroke="#383838" stroke-width="1.4" stroke-linecap="round"/>
<path d="M19.5918 14.6396C20.5191 15.2952 21.1196 16.3431 21.1196 17.5239C21.1196 19.5098 19.4214 21.1196 17.3265 21.1196C16.5509 21.1196 15.8297 20.899 15.229 20.5203C14.7148 20.1963 12.604 18.0792 12.006 17.4754C11.8992 17.3675 11.7946 17.2602 11.6784 17.1625C11.3767 16.9091 10.8736 16.5491 10.6357 16.4252C10.1089 16.2088 8.79183 15.9059 7.73817 16.4252C7.45719 16.5251 6.71612 16.9147 5.99963 17.6737" stroke="#383838" stroke-width="1.4" stroke-linecap="round"/>
<path d="M9.59963 18.9446C8.9441 19.8278 7.89619 20.3997 6.71533 20.3997C4.72948 20.3997 3.11963 18.7823 3.11963 16.7871C3.11963 16.0485 3.34026 15.3617 3.71891 14.7895C4.04232 14.3008 6.1516 12.2976 6.76024 11.7235C6.87046 11.6195 6.98028 11.5176 7.08038 11.4039C7.33365 11.1161 7.69075 10.6405 7.81402 10.415C8.03042 9.91325 8.3334 8.65889 7.81402 7.65541C7.71414 7.38781 7.3246 6.68203 6.56551 5.99966" stroke="#383838" stroke-width="1.4" stroke-linecap="round"/>
</svg>
