<svg width="36" height="36" viewBox="0 0 36 36" fill="none" xmlns="http://www.w3.org/2000/svg">
<g clip-path="url(#clip0_320_1923)">
<circle cx="18" cy="18" r="18" fill="black"/>
<circle cx="18" cy="18" r="17.5" stroke="#0D0D0D" stroke-opacity="0.2"/>
<path d="M15.5 10C14.6716 10 14 10.6716 14 11.5V24.5C14 25.3284 14.6716 26 15.5 26C16.3284 26 17 25.3284 17 24.5V11.5C17 10.6716 16.3284 10 15.5 10Z" fill="white"/>
<path d="M19 14.5C19 13.6716 19.6716 13 20.5 13C21.3284 13 22 13.6716 22 14.5V21.5C22 22.3284 21.3284 23 20.5 23C19.6716 23 19 22.3284 19 21.5V14.5Z" fill="white"/>
<path d="M10.5 15C9.67157 15 9 15.6716 9 16.5V19.5C9 20.3284 9.67157 21 10.5 21C11.3284 21 12 20.3284 12 19.5V16.5C12 15.6716 11.3284 15 10.5 15Z" fill="white"/>
<path d="M25.5 15C24.6716 15 24 15.6716 24 16.5V19.5C24 20.3284 24.6716 21 25.5 21C26.3284 21 27 20.3284 27 19.5V16.5C27 15.6716 26.3284 15 25.5 15Z" fill="white"/>
</g>
<defs>
<clipPath id="clip0_320_1923">
<rect width="36" height="36" fill="white"/>
</clipPath>
</defs>
</svg>
