<svg width="32" height="32" viewBox="0 0 32 32" fill="none" xmlns="http://www.w3.org/2000/svg">
<rect x="0.397727" y="0.487571" width="31.0227" height="31.0227" rx="15.5114" stroke="#DCDCDC" stroke-width="0.795455"/>
<mask id="path-2-inside-1_16_564" fill="white">
<path d="M15.1594 10.2498V9.24964C15.1594 9.0507 15.2384 8.8599 15.3791 8.71922C15.5198 8.57854 15.7106 8.49951 15.9095 8.49951C16.1085 8.49951 16.2993 8.57854 16.44 8.71922C16.5806 8.8599 16.6597 9.0507 16.6597 9.24964V10.2498C16.6597 10.4488 16.5806 10.6396 16.44 10.7802C16.2993 10.9209 16.1085 11 15.9095 11C15.7106 11 15.5198 10.9209 15.3791 10.7802C15.2384 10.6396 15.1594 10.4488 15.1594 10.2498ZM20.1603 16.0008C20.1603 16.8416 19.911 17.6634 19.4439 18.3624C18.9768 19.0615 18.313 19.6063 17.5362 19.928C16.7595 20.2498 15.9048 20.3339 15.0803 20.1699C14.2557 20.0059 13.4983 19.6011 12.9038 19.0066C12.3093 18.4121 11.9045 17.6547 11.7405 16.8301C11.5764 16.0056 11.6606 15.1509 11.9823 14.3741C12.3041 13.5974 12.8489 12.9335 13.5479 12.4665C14.247 11.9994 15.0688 11.7501 15.9095 11.7501C17.0365 11.7512 18.1171 12.1995 18.914 12.9964C19.7109 13.7933 20.1591 14.8738 20.1603 16.0008ZM18.66 16.0008C18.66 15.4568 18.4987 14.9251 18.1965 14.4728C17.8943 14.0204 17.4647 13.6679 16.9621 13.4597C16.4595 13.2515 15.9065 13.1971 15.3729 13.3032C14.8394 13.4093 14.3493 13.6713 13.9646 14.056C13.58 14.4406 13.318 14.9307 13.2119 15.4642C13.1058 15.9978 13.1602 16.5508 13.3684 17.0534C13.5766 17.556 13.9291 17.9856 14.3814 18.2878C14.8338 18.59 15.3655 18.7513 15.9095 18.7513C16.6388 18.7505 17.3379 18.4605 17.8535 17.9448C18.3691 17.4292 18.6592 16.7301 18.66 16.0008ZM11.1281 12.2808C11.1978 12.3506 11.2807 12.4059 11.3718 12.4437C11.463 12.4815 11.5607 12.5009 11.6594 12.5009C11.7581 12.5009 11.8558 12.4815 11.947 12.4437C12.0381 12.4059 12.121 12.3506 12.1907 12.2808C12.2605 12.211 12.3159 12.1282 12.3536 12.037C12.3914 11.9459 12.4108 11.8481 12.4108 11.7495C12.4108 11.6508 12.3914 11.5531 12.3536 11.4619C12.3159 11.3707 12.2605 11.2879 12.1907 11.2181L11.4406 10.468C11.2997 10.3271 11.1086 10.2479 10.9093 10.2479C10.71 10.2479 10.5188 10.3271 10.3779 10.468C10.237 10.6089 10.1578 10.8 10.1578 10.9993C10.1578 11.1986 10.237 11.3898 10.3779 11.5307L11.1281 12.2808ZM11.1281 19.7196L10.3779 20.4698C10.3082 20.5395 10.2528 20.6224 10.215 20.7135C10.1773 20.8047 10.1578 20.9024 10.1578 21.0011C10.1578 21.0998 10.1773 21.1975 10.215 21.2887C10.2528 21.3798 10.3082 21.4627 10.3779 21.5324C10.5188 21.6734 10.71 21.7525 10.9093 21.7525C11.008 21.7525 11.1057 21.7331 11.1968 21.6953C11.288 21.6576 11.3708 21.6022 11.4406 21.5324L12.1907 20.7823C12.3317 20.6414 12.4108 20.4503 12.4108 20.251C12.4108 20.0517 12.3317 19.8605 12.1907 19.7196C12.0498 19.5787 11.8587 19.4995 11.6594 19.4995C11.4601 19.4995 11.269 19.5787 11.1281 19.7196ZM20.1603 12.5002C20.2588 12.5003 20.3564 12.481 20.4475 12.4433C20.5385 12.4057 20.6213 12.3504 20.691 12.2808L21.4411 11.5307C21.5109 11.4609 21.5663 11.3781 21.604 11.2869C21.6418 11.1957 21.6612 11.098 21.6612 10.9993C21.6612 10.9007 21.6418 10.8029 21.604 10.7118C21.5663 10.6206 21.5109 10.5378 21.4411 10.468C21.3714 10.3982 21.2885 10.3429 21.1974 10.3051C21.1062 10.2673 21.0085 10.2479 20.9098 10.2479C20.8111 10.2479 20.7134 10.2673 20.6222 10.3051C20.5311 10.3429 20.4482 10.3982 20.3785 10.468L19.6283 11.2181C19.5228 11.323 19.4508 11.457 19.4216 11.6029C19.3924 11.7488 19.4073 11.9001 19.4643 12.0376C19.5214 12.175 19.618 12.2924 19.7419 12.3748C19.8658 12.4572 20.0115 12.5008 20.1603 12.5002ZM20.691 19.7209C20.5501 19.58 20.359 19.5008 20.1597 19.5008C19.9604 19.5008 19.7692 19.58 19.6283 19.7209C19.4874 19.8618 19.4082 20.0529 19.4082 20.2522C19.4082 20.4515 19.4874 20.6426 19.6283 20.7836L20.3785 21.5337C20.5194 21.6746 20.7105 21.7538 20.9098 21.7538C21.1091 21.7538 21.3002 21.6746 21.4411 21.5337C21.5821 21.3928 21.6612 21.2016 21.6612 21.0024C21.6612 20.8031 21.5821 20.6119 21.4411 20.471L20.691 19.7209ZM10.9086 16.0008C10.9086 15.8019 10.8296 15.6111 10.6889 15.4704C10.5483 15.3297 10.3575 15.2507 10.1585 15.2507H9.15834C8.95939 15.2507 8.76859 15.3297 8.62791 15.4704C8.48723 15.6111 8.4082 15.8019 8.4082 16.0008C8.4082 16.1998 8.48723 16.3906 8.62791 16.5313C8.76859 16.6719 8.95939 16.751 9.15834 16.751H10.1585C10.3575 16.751 10.5483 16.6719 10.6889 16.5313C10.8296 16.3906 10.9086 16.1998 10.9086 16.0008ZM15.9095 21.0017C15.7106 21.0017 15.5198 21.0808 15.3791 21.2214C15.2384 21.3621 15.1594 21.5529 15.1594 21.7519V22.752C15.1594 22.951 15.2384 23.1418 15.3791 23.2825C15.5198 23.4231 15.7106 23.5022 15.9095 23.5022C16.1085 23.5022 16.2993 23.4231 16.44 23.2825C16.5806 23.1418 16.6597 22.951 16.6597 22.752V21.7519C16.6597 21.5529 16.5806 21.3621 16.44 21.2214C16.2993 21.0808 16.1085 21.0017 15.9095 21.0017ZM22.6607 15.2507H21.6606C21.4616 15.2507 21.2708 15.3297 21.1301 15.4704C20.9895 15.6111 20.9104 15.8019 20.9104 16.0008C20.9104 16.1998 20.9895 16.3906 21.1301 16.5313C21.2708 16.6719 21.4616 16.751 21.6606 16.751H22.6607C22.8597 16.751 23.0505 16.6719 23.1912 16.5313C23.3318 16.3906 23.4109 16.1998 23.4109 16.0008C23.4109 15.8019 23.3318 15.6111 23.1912 15.4704C23.0505 15.3297 22.8597 15.2507 22.6607 15.2507Z"/>
</mask>
<path d="M15.1594 10.2498V9.24964C15.1594 9.0507 15.2384 8.8599 15.3791 8.71922C15.5198 8.57854 15.7106 8.49951 15.9095 8.49951C16.1085 8.49951 16.2993 8.57854 16.44 8.71922C16.5806 8.8599 16.6597 9.0507 16.6597 9.24964V10.2498C16.6597 10.4488 16.5806 10.6396 16.44 10.7802C16.2993 10.9209 16.1085 11 15.9095 11C15.7106 11 15.5198 10.9209 15.3791 10.7802C15.2384 10.6396 15.1594 10.4488 15.1594 10.2498ZM20.1603 16.0008C20.1603 16.8416 19.911 17.6634 19.4439 18.3624C18.9768 19.0615 18.313 19.6063 17.5362 19.928C16.7595 20.2498 15.9048 20.3339 15.0803 20.1699C14.2557 20.0059 13.4983 19.6011 12.9038 19.0066C12.3093 18.4121 11.9045 17.6547 11.7405 16.8301C11.5764 16.0056 11.6606 15.1509 11.9823 14.3741C12.3041 13.5974 12.8489 12.9335 13.5479 12.4665C14.247 11.9994 15.0688 11.7501 15.9095 11.7501C17.0365 11.7512 18.1171 12.1995 18.914 12.9964C19.7109 13.7933 20.1591 14.8738 20.1603 16.0008ZM18.66 16.0008C18.66 15.4568 18.4987 14.9251 18.1965 14.4728C17.8943 14.0204 17.4647 13.6679 16.9621 13.4597C16.4595 13.2515 15.9065 13.1971 15.3729 13.3032C14.8394 13.4093 14.3493 13.6713 13.9646 14.056C13.58 14.4406 13.318 14.9307 13.2119 15.4642C13.1058 15.9978 13.1602 16.5508 13.3684 17.0534C13.5766 17.556 13.9291 17.9856 14.3814 18.2878C14.8338 18.59 15.3655 18.7513 15.9095 18.7513C16.6388 18.7505 17.3379 18.4605 17.8535 17.9448C18.3691 17.4292 18.6592 16.7301 18.66 16.0008ZM11.1281 12.2808C11.1978 12.3506 11.2807 12.4059 11.3718 12.4437C11.463 12.4815 11.5607 12.5009 11.6594 12.5009C11.7581 12.5009 11.8558 12.4815 11.947 12.4437C12.0381 12.4059 12.121 12.3506 12.1907 12.2808C12.2605 12.211 12.3159 12.1282 12.3536 12.037C12.3914 11.9459 12.4108 11.8481 12.4108 11.7495C12.4108 11.6508 12.3914 11.5531 12.3536 11.4619C12.3159 11.3707 12.2605 11.2879 12.1907 11.2181L11.4406 10.468C11.2997 10.3271 11.1086 10.2479 10.9093 10.2479C10.71 10.2479 10.5188 10.3271 10.3779 10.468C10.237 10.6089 10.1578 10.8 10.1578 10.9993C10.1578 11.1986 10.237 11.3898 10.3779 11.5307L11.1281 12.2808ZM11.1281 19.7196L10.3779 20.4698C10.3082 20.5395 10.2528 20.6224 10.215 20.7135C10.1773 20.8047 10.1578 20.9024 10.1578 21.0011C10.1578 21.0998 10.1773 21.1975 10.215 21.2887C10.2528 21.3798 10.3082 21.4627 10.3779 21.5324C10.5188 21.6734 10.71 21.7525 10.9093 21.7525C11.008 21.7525 11.1057 21.7331 11.1968 21.6953C11.288 21.6576 11.3708 21.6022 11.4406 21.5324L12.1907 20.7823C12.3317 20.6414 12.4108 20.4503 12.4108 20.251C12.4108 20.0517 12.3317 19.8605 12.1907 19.7196C12.0498 19.5787 11.8587 19.4995 11.6594 19.4995C11.4601 19.4995 11.269 19.5787 11.1281 19.7196ZM20.1603 12.5002C20.2588 12.5003 20.3564 12.481 20.4475 12.4433C20.5385 12.4057 20.6213 12.3504 20.691 12.2808L21.4411 11.5307C21.5109 11.4609 21.5663 11.3781 21.604 11.2869C21.6418 11.1957 21.6612 11.098 21.6612 10.9993C21.6612 10.9007 21.6418 10.8029 21.604 10.7118C21.5663 10.6206 21.5109 10.5378 21.4411 10.468C21.3714 10.3982 21.2885 10.3429 21.1974 10.3051C21.1062 10.2673 21.0085 10.2479 20.9098 10.2479C20.8111 10.2479 20.7134 10.2673 20.6222 10.3051C20.5311 10.3429 20.4482 10.3982 20.3785 10.468L19.6283 11.2181C19.5228 11.323 19.4508 11.457 19.4216 11.6029C19.3924 11.7488 19.4073 11.9001 19.4643 12.0376C19.5214 12.175 19.618 12.2924 19.7419 12.3748C19.8658 12.4572 20.0115 12.5008 20.1603 12.5002ZM20.691 19.7209C20.5501 19.58 20.359 19.5008 20.1597 19.5008C19.9604 19.5008 19.7692 19.58 19.6283 19.7209C19.4874 19.8618 19.4082 20.0529 19.4082 20.2522C19.4082 20.4515 19.4874 20.6426 19.6283 20.7836L20.3785 21.5337C20.5194 21.6746 20.7105 21.7538 20.9098 21.7538C21.1091 21.7538 21.3002 21.6746 21.4411 21.5337C21.5821 21.3928 21.6612 21.2016 21.6612 21.0024C21.6612 20.8031 21.5821 20.6119 21.4411 20.471L20.691 19.7209ZM10.9086 16.0008C10.9086 15.8019 10.8296 15.6111 10.6889 15.4704C10.5483 15.3297 10.3575 15.2507 10.1585 15.2507H9.15834C8.95939 15.2507 8.76859 15.3297 8.62791 15.4704C8.48723 15.6111 8.4082 15.8019 8.4082 16.0008C8.4082 16.1998 8.48723 16.3906 8.62791 16.5313C8.76859 16.6719 8.95939 16.751 9.15834 16.751H10.1585C10.3575 16.751 10.5483 16.6719 10.6889 16.5313C10.8296 16.3906 10.9086 16.1998 10.9086 16.0008ZM15.9095 21.0017C15.7106 21.0017 15.5198 21.0808 15.3791 21.2214C15.2384 21.3621 15.1594 21.5529 15.1594 21.7519V22.752C15.1594 22.951 15.2384 23.1418 15.3791 23.2825C15.5198 23.4231 15.7106 23.5022 15.9095 23.5022C16.1085 23.5022 16.2993 23.4231 16.44 23.2825C16.5806 23.1418 16.6597 22.951 16.6597 22.752V21.7519C16.6597 21.5529 16.5806 21.3621 16.44 21.2214C16.2993 21.0808 16.1085 21.0017 15.9095 21.0017ZM22.6607 15.2507H21.6606C21.4616 15.2507 21.2708 15.3297 21.1301 15.4704C20.9895 15.6111 20.9104 15.8019 20.9104 16.0008C20.9104 16.1998 20.9895 16.3906 21.1301 16.5313C21.2708 16.6719 21.4616 16.751 21.6606 16.751H22.6607C22.8597 16.751 23.0505 16.6719 23.1912 16.5313C23.3318 16.3906 23.4109 16.1998 23.4109 16.0008C23.4109 15.8019 23.3318 15.6111 23.1912 15.4704C23.0505 15.3297 22.8597 15.2507 22.6607 15.2507Z" fill="#383838" stroke="#AEAEAE" stroke-width="0.125022" mask="url(#path-2-inside-1_16_564)"/>
</svg>
