<svg width="36" height="36" viewBox="0 0 36 36" fill="none" xmlns="http://www.w3.org/2000/svg">
<rect width="36" height="36" rx="18" fill="black"/>
<path d="M17.999 11.0005C18.0788 11.0005 18.1583 11.0126 18.2344 11.0356L18.3096 11.062C18.3834 11.0927 18.4522 11.1344 18.5137 11.1851L18.5723 11.2388L23.6348 16.3013C23.6912 16.3575 23.7388 16.4217 23.7764 16.4917L23.8105 16.564C23.8513 16.6621 23.873 16.7672 23.873 16.8735C23.873 16.9534 23.861 17.0328 23.8379 17.1089L23.8105 17.1841C23.78 17.2576 23.7388 17.326 23.6885 17.3872L23.6348 17.4468C23.5597 17.5221 23.4703 17.5818 23.3721 17.6226C23.2738 17.6634 23.1679 17.6841 23.0615 17.6841C22.9819 17.684 22.903 17.672 22.8271 17.6489L22.752 17.6226C22.6782 17.592 22.6093 17.551 22.5479 17.5005L22.4893 17.4468L18.8691 13.8257L18.8086 13.7661V24.187C18.8086 24.3746 18.7439 24.5558 18.626 24.6997L18.5723 24.7583C18.4206 24.9099 18.2145 24.9956 18 24.9956C17.8122 24.9956 17.6312 24.9301 17.4873 24.812L17.4287 24.7583C17.2771 24.6067 17.1914 24.4014 17.1914 24.187V13.7661L17.1318 13.8257L13.5098 17.4468C13.3579 17.5986 13.1513 17.6841 12.9365 17.6841C12.7488 17.684 12.5678 17.6184 12.4238 17.5005L12.3643 17.4468C12.2123 17.2949 12.127 17.0884 12.127 16.8735C12.127 16.6855 12.1923 16.504 12.3105 16.3599L12.3643 16.3013L17.4268 11.2388C17.4831 11.1823 17.5471 11.1338 17.6172 11.0962L17.6895 11.062C17.7876 11.0213 17.8928 11.0006 17.999 11.0005Z" fill="white" stroke="white" stroke-width="0.0703125"/>
</svg>
