<svg width="36" height="36" viewBox="0 0 36 36" fill="none" xmlns="http://www.w3.org/2000/svg">
<path d="M18 21.9917C19.049 21.9905 20.0547 21.5732 20.7964 20.8315C21.5382 20.0898 21.9554 19.0841 21.9566 18.0351V13.1655C21.9566 12.1162 21.5397 11.1098 20.7978 10.3678C20.0558 9.62583 19.0494 9.20898 18 9.20898C16.9507 9.20898 15.9443 9.62583 15.2023 10.3678C14.4603 11.1098 14.0435 12.1162 14.0435 13.1655V18.0351C14.0447 19.0841 14.4619 20.0898 15.2037 20.8315C15.9454 21.5732 16.9511 21.9905 18 21.9917ZM15.8696 13.1655C15.8696 12.6005 16.0941 12.0586 16.4936 11.6591C16.8931 11.2595 17.435 11.0351 18 11.0351C18.5651 11.0351 19.107 11.2595 19.5065 11.6591C19.906 12.0586 20.1305 12.6005 20.1305 13.1655V18.0351C20.1305 18.6002 19.906 19.1421 19.5065 19.5416C19.107 19.9411 18.5651 20.1656 18 20.1656C17.435 20.1656 16.8931 19.9411 16.4936 19.5416C16.0941 19.1421 15.8696 18.6002 15.8696 18.0351V13.1655ZM18.9131 24.9758V26.5569C18.9131 26.7991 18.8169 27.0313 18.6457 27.2026C18.4744 27.3738 18.2422 27.47 18 27.47C17.7579 27.47 17.5257 27.3738 17.3544 27.2026C17.1832 27.0313 17.087 26.7991 17.087 26.5569V24.9758C15.404 24.7521 13.8593 23.9253 12.7398 22.6488C11.6204 21.3723 11.0022 19.733 11 18.0351C11 17.793 11.0962 17.5607 11.2674 17.3895C11.4387 17.2183 11.6709 17.1221 11.913 17.1221C12.1552 17.1221 12.3874 17.2183 12.5587 17.3895C12.7299 17.5607 12.8261 17.793 12.8261 18.0351C12.8261 19.4073 13.3712 20.7234 14.3415 21.6937C15.3118 22.664 16.6278 23.2091 18 23.2091C19.3723 23.2091 20.6883 22.664 21.6586 21.6937C22.6289 20.7234 23.174 19.4073 23.174 18.0351C23.174 17.793 23.2702 17.5607 23.4414 17.3895C23.6127 17.2183 23.8449 17.1221 24.087 17.1221C24.3292 17.1221 24.5614 17.2183 24.7327 17.3895C24.9039 17.5607 25.0001 17.793 25.0001 18.0351C24.9979 19.733 24.3797 21.3723 23.2603 22.6488C22.1408 23.9253 20.5961 24.7521 18.9131 24.9758Z" fill="#AEAEAE"/>
</svg>
