<svg width="36" height="36" viewBox="0 0 36 36" fill="none" xmlns="http://www.w3.org/2000/svg">
<g id="Search" clip-path="url(#clip0_320_1906)">
<g id="Ellipse 5">
<circle cx="18" cy="18" r="18" fill="white"/>
<circle cx="18" cy="18" r="17.5" stroke="black" stroke-opacity="0.1"/>
</g>
<path id="Vector" fill-rule="evenodd" clip-rule="evenodd" d="M10.5 18C10.5 13.8579 13.8579 10.5 18 10.5C22.1421 10.5 25.5 13.8579 25.5 18C25.5 22.1421 22.1421 25.5 18 25.5C13.8579 25.5 10.5 22.1421 10.5 18ZM17.9888 12.0022C17.995 12.0003 17.9997 12 17.9997 12C17.9997 12 18.005 12.0003 18.0112 12.0022C18.0192 12.0046 18.0353 12.0106 18.0593 12.0252C18.1569 12.0844 18.3194 12.2433 18.5063 12.5827C18.6871 12.9109 18.8609 13.3535 19.0114 13.8995C19.2639 14.8149 19.4367 15.9688 19.4858 17.25H16.5142C16.5633 15.9688 16.7361 14.8149 16.9885 13.8995C17.1391 13.3535 17.3129 12.9109 17.4937 12.5827C17.6806 12.2433 17.8431 12.0844 17.9407 12.0252C17.9647 12.0106 17.9808 12.0046 17.9888 12.0022ZM15.0132 17.25C15.063 15.8499 15.2507 14.5588 15.5425 13.5007C15.6552 13.0919 15.7857 12.7098 15.9339 12.3652C13.8635 13.1246 12.3279 14.9926 12.0464 17.25H15.0132ZM12.0464 18.75H15.0132C15.0712 20.3803 15.3163 21.8666 15.6975 23.0102C15.7698 23.2271 15.8485 23.4362 15.9339 23.6348C13.8635 22.8754 12.3279 21.0074 12.0464 18.75ZM16.5142 18.75H19.4858C19.4284 20.2479 19.202 21.5681 18.8794 22.5358C18.6904 23.1029 18.4819 23.5077 18.2867 23.7553C18.1909 23.8769 18.1129 23.9419 18.061 23.9737C18.0364 23.9889 18.0198 23.9951 18.0115 23.9977C18.0037 24.0001 17.9999 24 17.9999 24C17.9999 24 17.9961 24 17.9885 23.9977C17.9802 23.9951 17.9636 23.9889 17.939 23.9737C17.8871 23.9419 17.8091 23.8769 17.7133 23.7553C17.5181 23.5077 17.3096 23.1029 17.1206 22.5358C16.798 21.5681 16.5716 20.2479 16.5142 18.75ZM20.9867 18.75C20.9288 20.3803 20.6837 21.8666 20.3025 23.0102C20.2302 23.2271 20.1515 23.4362 20.0661 23.6348C22.1365 22.8754 23.6721 21.0074 23.9536 18.75H20.9867ZM23.9536 17.25C23.6721 14.9926 22.1365 13.1246 20.0661 12.3652C20.2143 12.7098 20.3447 13.0919 20.4575 13.5007C20.7493 14.5588 20.937 15.8499 20.9867 17.25H23.9536Z" fill="#5D5D5D"/>
</g>
<defs>
<clipPath id="clip0_320_1906">
<rect width="36" height="36" fill="white"/>
</clipPath>
</defs>
</svg>
