<svg width="24" height="24" viewBox="0 0 24 24" fill="none" xmlns="http://www.w3.org/2000/svg">
<path d="M21.0782 6.50206C20.9702 6.01728 20.7583 5.57525 20.4638 5.22033C20.1692 4.86541 19.8024 4.61008 19.4 4.47997C18.3009 3.96829 7.65241 3.71761 4.56303 4.49428C4.16065 4.62444 3.79376 4.87985 3.4992 5.23488C3.20464 5.58991 2.99277 6.03206 2.88486 6.51694C2.38849 9.13999 2.35097 14.8108 2.89721 17.4928C3.0052 17.9775 3.2171 18.4196 3.51165 18.7745C3.80621 19.1294 4.17305 19.3847 4.57538 19.5148C6.75229 20.1187 17.1015 20.2034 19.4124 19.5148C19.8147 19.3847 20.1816 19.1294 20.4761 18.7745C20.7707 18.4196 20.9826 17.9775 21.0906 17.4928C21.6197 14.6351 21.6572 9.3157 21.0782 6.50206Z" stroke="#1E1E1E" stroke-width="1.6" stroke-linecap="round" stroke-linejoin="round"/>
<path d="M14.4283 12.343C14.6873 12.1876 14.6873 11.8124 14.4283 11.657L10.6058 9.36348C10.3392 9.20351 10 9.39556 10 9.70648V14.2935C10 14.6044 10.3392 14.7965 10.6058 14.6365L14.4283 12.343Z" stroke="#1E1E1E" stroke-width="1.6" stroke-linecap="round" stroke-linejoin="round"/>
</svg>
